# xmcd
#
# Track frame offsets: 
#        150
#        30964
#        42199
#        73953
#        87059
#        95787
#        134260
#        159927
#        212409
#
# Disc length: 3436 seconds
#
# Revision: 4
# Processed by: cddbd v1.5.2PL0 Copyright (c) Steve Scherf et al.
# Submitted via: ExactAudioCopy v1.2
#
DISCID=6e0d6a09
DTITLE=Die drei ??? - DDF 175B - Schattenwelt - Angriff in der Nacht
DYEAR=2015
DGENRE=Hörspiel
TTITLE0=Kleinkriminelle mit Größenwahn
TTITLE1=Ein tragischer Unfall
TTITLE2=Party-Time
TTITLE3=Im Keller
TTITLE4=Quaesitio
TTITLE5=Lailaps
TTITLE6=Angriff in der Nacht
TTITLE7=Tödliches Gift
TTITLE8=Verräterischer Duft
EXTD=
EXTT0=
EXTT1=
EXTT2=
EXTT3=
EXTT4=
EXTT5=
EXTT6=
EXTT7=
EXTT8=
PLAYORDER=
